<svg width="84" height="84" viewBox="0 0 84 84" fill="none" xmlns="http://www.w3.org/2000/svg">
<circle cx="42" cy="42" r="42" fill="#EBE9FF"/>
<g clip-path="url(#clip0)">
<path d="M17.7779 57.1551H46.518C46.5212 57.1551 46.5242 57.1546 46.5274 57.1545C46.5732 57.223 46.6212 57.2901 46.6722 57.3551C46.4741 58.0665 46.5165 58.8324 46.8017 59.5212C47.087 60.2098 47.5986 60.7813 48.2416 61.1442C48.3309 61.8772 48.6631 62.5686 49.1902 63.0957C49.7173 63.6229 50.4088 63.9551 51.1417 64.0443C51.5046 64.6874 52.0762 65.199 52.7648 65.4843C53.4534 65.7695 54.2192 65.8119 54.9308 65.6138C55.5123 66.069 56.2361 66.323 56.9815 66.323C57.7269 66.323 58.4507 66.0691 59.0321 65.6138C59.7434 65.8118 60.5094 65.7695 61.1982 65.4843C61.8869 65.199 62.4583 64.6873 62.8212 64.0443C63.5543 63.9551 64.2457 63.6229 64.7728 63.0957C65.2999 62.5686 65.6321 61.8772 65.7213 61.1443C66.3644 60.7813 66.8761 60.2097 67.1613 59.5212C67.4466 58.8325 67.4889 58.0665 67.2908 57.3551C67.746 56.7738 68 56.05 68 55.3045C68 54.559 67.746 53.8353 67.2908 53.2538C67.4888 52.5425 67.4465 51.7766 67.1613 51.0879C66.8761 50.3992 66.3644 49.8277 65.7213 49.4647C65.6321 48.7318 65.2999 48.0403 64.7728 47.5132C64.4988 47.2393 64.1799 47.0193 63.8344 46.8574C63.8345 46.8536 63.835 46.8497 63.835 46.8458V30.0603C63.835 29.0799 63.0375 28.2824 62.0572 28.2824H58.9252V25.2382H59.2742C59.9972 25.2382 60.6232 24.8254 60.9078 24.1607C61.1925 23.4961 61.0594 22.7582 60.5606 22.2348L56.7418 18.228C56.408 17.8778 55.939 17.6769 55.4553 17.6769C54.9715 17.6769 54.5026 17.8778 54.1688 18.228L50.3501 22.2347C49.8512 22.7581 49.7181 23.496 50.0028 24.1606C50.2875 24.8253 50.9135 25.2381 51.6366 25.2381H51.9855V28.2823H43.3874V25.2381H43.7365C44.4595 25.2381 45.0856 24.8253 45.3701 24.1606C45.6548 23.496 45.5218 22.7581 45.023 22.2347L41.2042 18.2279C40.8703 17.8777 40.4014 17.6768 39.9177 17.6768C39.4338 17.6768 38.9649 17.8777 38.6312 18.2279L34.8123 22.2347C34.3135 22.7581 34.1805 23.496 34.4652 24.1606C34.7499 24.8253 35.3758 25.2381 36.0988 25.2381H36.4479V28.2823H33.1132C32.6925 28.2823 32.3515 28.6233 32.3515 29.044C32.3515 29.4646 32.6925 29.8057 33.1132 29.8057H36.4479V31.3313H24.4535C23.8048 31.3313 23.2623 31.8196 23.1917 32.4671C23.0203 34.038 21.7554 35.3025 20.1842 35.4738C19.5366 35.5444 19.0483 36.0868 19.0483 36.7355V52.8365C19.0483 53.5365 19.6183 54.106 20.3187 54.106H46.1882C46.0413 54.4853 45.963 54.8915 45.963 55.3046C45.963 55.4143 45.9692 55.5233 45.9799 55.6316H17.778C17.6377 55.6316 17.5235 55.5175 17.5235 55.3771V30.0603C17.5235 29.92 17.6377 29.8058 17.778 29.8058H29.6943C30.115 29.8058 30.456 29.4647 30.456 29.0441C30.456 28.6234 30.115 28.2824 29.6943 28.2824H27.8495V25.2382H28.1985C28.9215 25.2382 29.5475 24.8254 29.8321 24.1607C30.1168 23.4961 29.9837 22.7582 29.485 22.2348L25.6661 18.228C25.3323 17.8778 24.8634 17.6769 24.3796 17.6769C23.8958 17.6769 23.427 17.8778 23.0931 18.228L19.2743 22.2348C18.7755 22.7582 18.6425 23.4961 18.9271 24.1607C19.2118 24.8254 19.8377 25.2382 20.5608 25.2382H20.9097V28.2824H17.7777C16.7975 28.2824 15.9999 29.0799 15.9999 30.0603V55.3771C16 56.3574 16.7976 57.1551 17.7779 57.1551ZM64.7169 50.6727C65.1921 50.8492 65.5603 51.2037 65.7537 51.6709C65.9473 52.1382 65.9376 52.6491 65.7263 53.1098C65.5893 53.4087 65.6595 53.7617 65.9005 53.9855C66.272 54.3304 66.4766 54.7988 66.4766 55.3045C66.4766 55.8102 66.272 56.2786 65.9006 56.6235C65.6596 56.8472 65.5894 57.2002 65.7264 57.4991C65.9377 57.9598 65.9473 58.4709 65.7538 58.9382C65.5604 59.4054 65.1921 59.7598 64.717 59.9363C64.4087 60.0508 64.2089 60.3501 64.2211 60.6787C64.2399 61.1851 64.0533 61.661 63.6956 62.0186C63.338 62.3762 62.8609 62.5619 62.3558 62.544C62.0262 62.5307 61.7279 62.7317 61.6134 63.0399C61.437 63.515 61.0825 63.8833 60.6153 64.0767C60.1481 64.2703 59.6369 64.2607 59.1764 64.0493C58.8775 63.9123 58.5244 63.9826 58.3007 64.2235C57.9558 64.5949 57.4874 64.7995 56.9817 64.7995C56.476 64.7995 56.0076 64.5949 55.6627 64.2235C55.4392 63.9826 55.086 63.9124 54.787 64.0493C54.3263 64.2606 53.8153 64.2702 53.3481 64.0767C52.8809 63.8833 52.5263 63.515 52.3499 63.0399C52.2355 62.7316 51.9353 62.5305 51.6076 62.544C51.1024 62.5631 50.6254 62.3762 50.2677 62.0186C49.9101 61.661 49.7235 61.1851 49.7423 60.6787C49.7545 60.3501 49.5545 60.0508 49.2464 59.9363C48.7713 59.7599 48.403 59.4054 48.2095 58.9382C48.016 58.4709 48.0257 57.9599 48.237 57.4992C48.374 57.2003 48.3038 56.8473 48.0628 56.6236C47.6914 56.2787 47.4868 55.8103 47.4868 55.3046C47.4868 54.7989 47.6914 54.3305 48.0628 53.9856C48.3038 53.7618 48.374 53.4088 48.237 53.1099C48.0257 52.6492 48.0161 52.1382 48.2095 51.671C48.403 51.2038 48.7713 50.8492 49.2464 50.6728C49.5546 50.5584 49.7545 50.2591 49.7423 49.9305C49.7235 49.424 49.9101 48.9482 50.2677 48.5906C50.6253 48.233 51.1014 48.0469 51.6076 48.0652C51.9378 48.0787 52.2355 47.8774 52.3499 47.5693C52.5264 47.0941 52.8809 46.7259 53.3481 46.5324C53.8153 46.3388 54.3263 46.3485 54.787 46.5598C55.0859 46.6968 55.439 46.6267 55.6627 46.3857C56.0076 46.0143 56.476 45.8097 56.9817 45.8097C57.4874 45.8097 57.9558 46.0143 58.3007 46.3857C58.4481 46.5445 58.6518 46.6291 58.8592 46.6291C58.9663 46.6291 59.0745 46.6065 59.1764 46.5597C59.637 46.3485 60.148 46.3389 60.6154 46.5323C61.0826 46.7258 61.437 47.0941 61.6135 47.5692C61.728 47.8774 62.0271 48.078 62.3559 48.0651C62.8615 48.0471 63.3382 48.2329 63.6958 48.5905C64.0534 48.9481 64.24 49.424 64.2212 49.9304C64.2087 50.259 64.4086 50.5583 64.7169 50.6727ZM52.7471 23.7148H51.6365C51.4907 23.7148 51.4277 23.6184 51.4031 23.5609C51.3785 23.5034 51.3522 23.3913 51.4527 23.2859L55.2716 19.279C55.3369 19.2106 55.4147 19.2003 55.4553 19.2003C55.4959 19.2003 55.5738 19.2106 55.6391 19.279L59.458 23.2859C59.5584 23.3913 59.5321 23.5034 59.5075 23.5609C59.4829 23.6184 59.4199 23.7148 59.2743 23.7148H58.1636C57.7429 23.7148 57.4019 24.0558 57.4019 24.4765V28.2824H53.5091V24.4765C53.5089 24.0558 53.1678 23.7148 52.7471 23.7148ZM36.0987 23.7148C35.9531 23.7148 35.89 23.6184 35.8654 23.5609C35.8408 23.5034 35.8145 23.3913 35.915 23.2859L39.7338 19.279C39.7991 19.2106 39.8769 19.2004 39.9176 19.2004C39.9581 19.2004 40.036 19.2107 40.1013 19.279L43.9201 23.2859C44.0206 23.3913 43.9943 23.5034 43.9697 23.5609C43.945 23.6184 43.8821 23.7148 43.7364 23.7148H42.6256C42.205 23.7148 41.8639 24.0558 41.8639 24.4765V31.3314H37.9711V24.4765C37.9711 24.0558 37.6301 23.7148 37.2094 23.7148H36.0987ZM20.5715 36.9588C22.6703 36.6311 24.3485 34.9531 24.6765 32.8548H59.2635V37.8193C59.2635 38.24 59.6045 38.581 60.0252 38.581C60.4459 38.581 60.7869 38.24 60.7869 37.8193V32.6009C60.7869 31.9008 60.217 31.3314 59.5164 31.3314H43.3873V29.8058H62.0571C62.1973 29.8058 62.3115 29.92 62.3115 30.0603V45.8842C61.9983 45.5607 61.6206 45.2998 61.1981 45.1248C61.0638 45.0691 60.926 45.0255 60.7868 44.9884V41.238C60.7868 40.8173 60.4458 40.4763 60.0251 40.4763C59.6044 40.4763 59.2634 40.8173 59.2634 41.238V44.941C59.1858 44.9568 59.1085 44.9739 59.032 44.9952C58.4506 44.54 57.7268 44.286 56.9814 44.286C56.6622 44.286 56.3469 44.3329 56.0451 44.422V41.6902C56.0451 41.2696 55.704 40.9285 55.2834 40.9285C54.8627 40.9285 54.5216 41.2696 54.5216 41.6902V44.9115C53.932 44.8248 53.3231 44.8934 52.7648 45.1248C52.0761 45.41 51.5045 45.9216 51.1416 46.5647C50.4088 46.654 49.7172 46.9862 49.1902 47.5132C48.6631 48.0403 48.3309 48.7318 48.2416 49.4647C47.5985 49.8276 47.087 50.3992 46.8017 51.0878C46.6045 51.5637 46.5262 52.0763 46.5603 52.5825H20.5715V36.9588ZM21.6717 23.7148H20.561C20.4153 23.7148 20.3523 23.6184 20.3277 23.5609C20.3031 23.5034 20.2768 23.3913 20.3772 23.2859L24.1961 19.279C24.2614 19.2106 24.3392 19.2003 24.3798 19.2003C24.4204 19.2003 24.4983 19.2106 24.5636 19.279L28.3825 23.2859C28.4829 23.3913 28.4566 23.5034 28.4321 23.5609C28.4074 23.6184 28.3444 23.7148 28.1988 23.7148H27.0881C26.6674 23.7148 26.3264 24.0558 26.3264 24.4765V28.2824H22.4336V24.4765C22.4334 24.0558 22.0923 23.7148 21.6717 23.7148Z" fill="#362F74"/>
<path d="M39.9173 35.5677C35.9743 35.5677 32.7664 38.7755 32.7664 42.7187C32.7664 46.6618 35.9743 49.8696 39.9173 49.8696C43.8604 49.8696 47.0684 46.6618 47.0684 42.7187C47.0684 38.7755 43.8604 35.5677 39.9173 35.5677ZM39.9173 48.3462C36.8143 48.3462 34.2899 45.8218 34.2899 42.7187C34.2899 39.6157 36.8143 37.0911 39.9173 37.0911C43.0204 37.0911 45.5449 39.6156 45.5449 42.7187C45.5449 45.8217 43.0204 48.3462 39.9173 48.3462Z" fill="#362F74"/>
<path d="M40.7268 41.9568H40.6801V40.9766H41.442C41.8626 40.9766 42.2037 40.6356 42.2037 40.2149C42.2037 39.7942 41.8626 39.4532 41.442 39.4532H40.6801V39.2828C40.6801 38.8621 40.3391 38.521 39.9184 38.521C39.4978 38.521 39.1567 38.8621 39.1567 39.2828V39.4532H39.1101C37.9998 39.4532 37.0966 40.3565 37.0966 41.4667C37.0966 42.5769 37.9999 43.4802 39.1101 43.4802H39.1567V44.4603H38.395C37.9743 44.4603 37.6333 44.8014 37.6333 45.222C37.6333 45.6427 37.9743 45.9838 38.395 45.9838H39.1567V46.1542C39.1567 46.5748 39.4978 46.9159 39.9184 46.9159C40.3391 46.9159 40.6801 46.5748 40.6801 46.1542V45.9838H40.7268C41.837 45.9838 42.7402 45.0805 42.7402 43.9703C42.7402 42.8601 41.8369 41.9568 40.7268 41.9568ZM39.11 41.9568C38.8397 41.9568 38.6199 41.7369 38.6199 41.4667C38.6199 41.1964 38.8398 40.9766 39.11 40.9766H39.1566V41.9568H39.11ZM40.7268 44.4604H40.6801V43.4803H40.7268C40.997 43.4803 41.2168 43.7002 41.2168 43.9704C41.2168 44.2405 40.9969 44.4604 40.7268 44.4604Z" fill="#362F74"/>
<path d="M25.2339 46.0092H23.8705C22.8901 46.0092 22.0925 46.8067 22.0925 47.7871V49.1505C22.0925 50.1308 22.8901 50.9283 23.8705 50.9283H25.2339C26.2141 50.9283 27.0117 50.1308 27.0117 49.1505V47.7871C27.0117 46.8067 26.2141 46.0092 25.2339 46.0092ZM25.4883 49.1505C25.4883 49.2908 25.3741 49.4049 25.2339 49.4049H23.8705C23.7301 49.4049 23.616 49.2908 23.616 49.1505V47.7871C23.616 47.6468 23.7301 47.5326 23.8705 47.5326H25.2339C25.3741 47.5326 25.4883 47.6468 25.4883 47.7871V49.1505Z" fill="#362F74"/>
<path d="M24.5508 44.5088C24.9715 44.5088 25.3125 44.1677 25.3125 43.7471V39.1039C25.3125 38.6833 24.9715 38.3422 24.5508 38.3422C24.1301 38.3422 23.7891 38.6833 23.7891 39.1039V43.7471C23.7891 44.1677 24.1301 44.5088 24.5508 44.5088Z" fill="#362F74"/>
<path d="M54.601 39.4281H55.9643C56.9446 39.4281 57.7422 38.6305 57.7422 37.6501V36.2868C57.7422 35.3065 56.9446 34.5089 55.9643 34.5089H54.601C53.6206 34.5089 52.823 35.3065 52.823 36.2868V37.6501C52.823 38.6304 53.6206 39.4281 54.601 39.4281ZM54.3464 36.2868C54.3464 36.1465 54.4606 36.0324 54.601 36.0324H55.9643C56.1046 36.0324 56.2188 36.1465 56.2188 36.2868V37.6501C56.2188 37.7905 56.1046 37.9047 55.9643 37.9047H54.601C54.4606 37.9047 54.3464 37.7905 54.3464 37.6501V36.2868Z" fill="#362F74"/>
<path d="M58.7138 56.2794C58.2949 56.2794 57.9543 56.6179 57.9521 57.0373C57.95 57.4579 58.2893 57.8007 58.71 57.8029H58.7199C58.7212 57.8029 58.7224 57.8029 58.7238 57.8029C59.1427 57.8029 59.4784 57.4643 59.4805 57.045C59.4826 56.6243 59.1383 56.2816 58.7176 56.2794H58.7138Z" fill="#362F74"/>
<path d="M55.2393 52.8062C54.8186 52.8062 54.4775 53.1472 54.4775 53.5679C54.4775 53.9885 54.8186 54.3296 55.2393 54.3296H55.2491C55.6698 54.3296 56.0059 53.9885 56.0059 53.5679C56.0059 53.1472 55.6599 52.8062 55.2393 52.8062Z" fill="#362F74"/>
<path d="M58.844 53.1373C58.7002 53.0138 58.5237 52.9532 58.348 52.9532C58.1337 52.9532 57.9205 53.0432 57.7699 53.2185L55.0385 56.3976C54.7643 56.7167 54.8008 57.1976 55.1198 57.4717C55.439 57.746 55.9199 57.7095 56.1939 57.3904L58.9254 54.2113C59.1996 53.8923 59.1631 53.4114 58.844 53.1373Z" fill="#362F74"/>
<path d="M56.9815 47.954C52.9285 47.954 49.6312 51.2515 49.6312 55.3045C49.6312 56.6375 49.9926 57.9441 50.6764 59.083C50.8929 59.4436 51.3608 59.5604 51.7216 59.3439C52.0823 59.1273 52.1991 58.6593 51.9825 58.2987C51.4409 57.3967 51.1547 56.3613 51.1547 55.3045C51.1547 52.0915 53.7686 49.4775 56.9816 49.4775C60.1947 49.4775 62.8086 52.0915 62.8086 55.3045C62.8086 58.5176 60.1947 61.1315 56.9816 61.1315C55.994 61.1315 55.0174 60.879 54.1576 60.4014C53.79 60.1972 53.3261 60.3296 53.1219 60.6975C52.9176 61.0653 53.0502 61.529 53.4179 61.7332C54.5034 62.3362 55.7358 62.6549 56.9816 62.6549C61.0347 62.6549 64.332 59.3576 64.332 55.3045C64.332 51.2515 61.0346 47.954 56.9815 47.954Z" fill="#362F74"/>
</g>
<defs>
<clipPath id="clip0">
<rect width="52" height="52" fill="white" transform="translate(68 68) rotate(-180)"/>
</clipPath>
</defs>
</svg>
