<svg width="16" height="16" viewBox="0 0 16 16" fill="none" xmlns="http://www.w3.org/2000/svg">
<path d="M16 8C16 3.58853 12.4115 -1.63251e-07 8 -3.63939e-07C3.58853 -5.64627e-07 -1.51068e-07 3.58853 -3.36779e-07 8C-5.2249e-07 12.4115 3.58916 16 8 16C12.4108 16 16 12.4115 16 8ZM1.23934 8C1.23934 4.27266 4.27203 1.23934 8 1.23934C11.728 1.23934 14.7607 4.27266 14.7607 8C14.7607 11.728 11.728 14.7607 8 14.7607C4.27203 14.7607 1.23934 11.7273 1.23934 8Z" fill="#362F74"/>
<path d="M7.14512 11.539L10.2435 8.44064C10.4839 8.19895 10.4839 7.80858 10.2435 7.56689L7.14512 4.46852C6.91337 4.26961 6.57069 4.26961 6.33894 4.46852C6.07928 4.69098 6.04894 5.08261 6.2714 5.34227L8.92978 8.00067L6.27137 10.6653C6.03094 10.907 6.03094 11.2973 6.27137 11.539C6.51306 11.7795 6.90347 11.7795 7.14512 11.539Z" fill="#362F74"/>
</svg>
