<svg width="26" height="22" viewBox="0 0 26 22" fill="none" xmlns="http://www.w3.org/2000/svg">
<path d="M0.415596 11.8253L9.80511 21.215C10.0731 21.483 10.4304 21.6301 10.8113 21.6301C11.1926 21.6301 11.5496 21.4828 11.8177 21.215L12.6702 20.3623C12.938 20.0947 13.0855 19.7372 13.0855 19.3561C13.0855 18.9752 12.938 18.6057 12.6702 18.3381L7.19245 12.8483H24.5954C25.38 12.8483 26 12.2341 26 11.4492V10.2437C26 9.45885 25.38 8.78264 24.5954 8.78264H7.1303L12.6699 3.26224C12.9378 2.99421 13.0853 2.64648 13.0853 2.26537C13.0853 1.88467 12.9378 1.53188 12.6699 1.26406L11.8174 0.414099C11.5494 0.146069 11.1924 3.8147e-06 10.8111 3.8147e-06C10.4302 3.8147e-06 10.0729 0.14797 9.8049 0.416L0.415386 9.80551C0.146721 10.0744 -0.00103188 10.4333 2.47955e-05 10.8149C-0.000822067 11.1977 0.146721 11.5568 0.415596 11.8253Z" fill="black"/>
</svg>
