<svg width="24" height="24" viewBox="0 0 24 24" fill="none" xmlns="http://www.w3.org/2000/svg">
<path fill-rule="evenodd" clip-rule="evenodd" d="M1.87109 12C1.87109 6.40751 6.408 1.87061 12.0005 1.87061C17.593 1.87061 22.1299 6.40751 22.1299 12C22.1299 17.5925 17.593 22.1294 12.0005 22.1294C6.408 22.1294 1.87109 17.5925 1.87109 12ZM12.0005 4.12943C7.65551 4.12943 4.12992 7.65502 4.12992 12C4.12992 16.345 7.65551 19.8706 12.0005 19.8706C16.3455 19.8706 19.8711 16.345 19.8711 12C19.8711 7.65502 16.3455 4.12943 12.0005 4.12943Z" fill="#828282"/>
<path fill-rule="evenodd" clip-rule="evenodd" d="M17.2269 7.38519C17.7046 7.78638 17.7665 8.4988 17.3653 8.97641L11.0653 16.4764C10.8551 16.7267 10.5467 16.8736 10.2198 16.8792C9.89295 16.8848 9.57971 16.7485 9.36103 16.5055L6.66103 13.5055C6.24376 13.0419 6.28134 12.3278 6.74498 11.9105C7.20861 11.4932 7.92273 11.5308 8.34 11.9944L10.1711 14.029L15.6357 7.52355C16.0369 7.04594 16.7493 6.98399 17.2269 7.38519Z" fill="#828282"/>
</svg>
