<svg width="24" height="24" viewBox="0 0 24 24" fill="none" xmlns="http://www.w3.org/2000/svg">
<path d="M12 0C10.3636 0 9.08523 0.630952 8.16477 1.89286C7.24432 3.15476 6.78409 4.76786 6.78409 6.73214C6.77273 9.17262 7.52273 11.1071 9.03409 12.5357C9.17611 12.6757 9.25057 12.8447 9.25748 13.0427C9.26272 13.193 9.20702 13.337 9.14446 13.4738L8.84659 14.125C8.72159 14.4107 8.53693 14.6339 8.29261 14.7946C8.0483 14.9554 7.53409 15.1845 6.75 15.4821C6.71591 15.494 5.99716 15.7381 4.59375 16.2143C3.19034 16.6905 2.44318 16.9524 2.35227 17C1.49278 17.3752 0.900462 17.7648 0.575334 18.169C0.505815 18.2554 0.453876 18.3543 0.418841 18.4596C0.206388 19.0977 0.074759 20.3194 0.0239528 22.1247C-0.0051775 23.1599 0.839466 24 1.875 24H22.125C23.1605 24 24.0052 23.1599 23.976 22.1247C23.9252 20.3194 23.7936 19.0977 23.5812 18.4596C23.5461 18.3543 23.4942 18.2554 23.4247 18.169C23.0995 17.7648 22.5072 17.3752 21.6477 17C21.5568 16.9524 20.8097 16.6905 19.4062 16.2143C18.0028 15.7381 17.2841 15.494 17.25 15.4821C16.4659 15.1845 15.9517 14.9554 15.7074 14.7946C15.4631 14.6339 15.2784 14.4107 15.1534 14.125L14.8555 13.4738C14.793 13.337 14.7373 13.193 14.7425 13.0427C14.7494 12.8447 14.8239 12.6757 14.9659 12.5357C16.4773 11.1071 17.2273 9.17262 17.2159 6.73214C17.2159 4.76786 16.7557 3.15476 15.8352 1.89286C14.9148 0.630952 13.6364 0 12 0Z" fill="#B5B5B5"/>
</svg>
